<?xml version="1.0" encoding="utf-8"?>
<!-- Generator: Adobe Illustrator 16.0.0, SVG Export Plug-In . SVG Version: 6.00 Build 0)  -->
<!DOCTYPE svg PUBLIC "-//W3C//DTD SVG 1.1//EN" "http://www.w3.org/Graphics/SVG/1.1/DTD/svg11.dtd">
<svg version="1.1" id="Layer_1" xmlns="http://www.w3.org/2000/svg" xmlns:xlink="http://www.w3.org/1999/xlink" x="0px" y="0px"
	 width="612px" height="792px" viewBox="0 0 612 792" enable-background="new 0 0 612 792" xml:space="preserve">
<g>
	
		<rect x="277.684" y="368.169" fill="none" stroke="#FFFFFF" stroke-width="3" stroke-miterlimit="10" width="50.977" height="50.261"/>
	<g>
		<polygon fill="#FFFFFF" points="284.123,422.921 335.1,422.921 333.6,424.421 333.6,372.16 334.039,373.221 332.434,369.493 
			332.494,369.433 336.16,371.1 336.6,371.299 336.6,372.16 336.6,424.421 336.6,425.921 335.1,425.921 284.123,425.921 		"/>
	</g>
	<path fill="none" stroke="#FFFFFF" stroke-width="3" stroke-miterlimit="10" d="M284.123,424.421c-3.557,0-6.439-1.396-6.439-4.95"
		/>
	<path fill="none" stroke="#FFFFFF" stroke-width="3" stroke-miterlimit="10" d="M303.172,388.272c0-3.483,2.823-6.306,6.306-6.306
		s6.306,2.822,6.306,6.306c0,7.156-5.453,13.293-12.611,16.359c-7.158-3.066-12.611-9.203-12.611-16.359
		c0-3.483,2.823-6.306,6.306-6.306S303.172,384.789,303.172,388.272z"/>
</g>
</svg>
