<?xml version="1.0" encoding="utf-8"?>
<!-- Generator: Adobe Illustrator 16.0.0, SVG Export Plug-In . SVG Version: 6.00 Build 0)  -->
<!DOCTYPE svg PUBLIC "-//W3C//DTD SVG 1.1//EN" "http://www.w3.org/Graphics/SVG/1.1/DTD/svg11.dtd">
<svg version="1.1" id="Layer_1" xmlns="http://www.w3.org/2000/svg" xmlns:xlink="http://www.w3.org/1999/xlink" x="0px" y="0px"
	 width="612px" height="792px" viewBox="0 0 612 792" enable-background="new 0 0 612 792" xml:space="preserve">
<g>
	<path fill="none" stroke="#FFFFFF" stroke-width="3" stroke-miterlimit="10" d="M319.744,399.117c0-2.96-2.264-5.39-5.153-5.657
		c-1.692-2.741-4.72-4.564-8.177-4.564c-3.703,0-6.916,2.096-8.52,5.166c-2.621,0.37-4.639,2.619-4.639,5.343
		c0,2.344,1.492,4.336,3.578,5.082l1.809,8.088c0,0,7.881,3.563,15.332,0c1.493-5.377,2.067-7.812,2.147-8.158
		C318.241,403.59,319.744,401.53,319.744,399.117z"/>
	<path fill="none" stroke="#FFFFFF" stroke-miterlimit="10" d="M296.874,404.534c0-0.651,0.862-1.179,1.923-1.179
		c1.062,0,1.922,0.527,1.922,1.179"/>
	<path fill="none" stroke="#FFFFFF" stroke-miterlimit="10" d="M300.719,404.534c0-0.651,0.861-1.179,1.924-1.179
		c1.061,0,1.921,0.527,1.921,1.179"/>
	<path fill="none" stroke="#FFFFFF" stroke-miterlimit="10" d="M304.563,404.534c0-0.651,0.86-1.179,1.922-1.179
		s1.923,0.527,1.923,1.179"/>
	<path fill="none" stroke="#FFFFFF" stroke-miterlimit="10" d="M308.408,404.534c0-0.651,0.859-1.179,1.922-1.179
		c1.062,0,1.921,0.527,1.921,1.179"/>
	<path fill="none" stroke="#FFFFFF" stroke-miterlimit="10" d="M312.251,404.534c0-0.651,0.861-1.179,1.923-1.179
		s1.923,0.527,1.923,1.179"/>
	<line fill="none" stroke="#FFFFFF" stroke-miterlimit="10" x1="300.719" y1="405.279" x2="301.188" y2="411.781"/>
	<line fill="none" stroke="#FFFFFF" stroke-miterlimit="10" x1="304.563" y1="405.279" x2="304.984" y2="411.781"/>
	<line fill="none" stroke="#FFFFFF" stroke-miterlimit="10" x1="312.251" y1="405.279" x2="311.782" y2="411.781"/>
	<line fill="none" stroke="#FFFFFF" stroke-miterlimit="10" x1="308.407" y1="405.279" x2="307.986" y2="411.781"/>
	
		<line fill="none" stroke="#FFFFFF" stroke-width="3" stroke-miterlimit="10" x1="307.391" y1="396.436" x2="307.391" y2="383.965"/>
	<path fill="#FFFFFF" d="M309.098,380.773c0,0.909-0.737,1.646-1.646,1.646c-0.91,0-1.647-0.737-1.647-1.646
		c0-0.91,1.647-4.382,1.647-4.382S309.098,379.863,309.098,380.773z"/>
	<g>
		<path fill="#FFFFFF" d="M297.936,392.562c0.009,0,0,0.005,0.075,0.02c0.073,0.014,0.163,0.038,0.248,0.067
			c0.186,0.061,0.43,0.156,0.705,0.294c0.549,0.271,1.228,0.733,1.718,1.345c0.504,0.601,0.771,1.307,0.855,1.814
			c0.058,0.252,0.061,0.465,0.068,0.61c0.006,0.143,0.01,0.225,0.01,0.225s-0.048-0.067-0.132-0.184
			c-0.083-0.115-0.195-0.279-0.365-0.442c-0.316-0.342-0.813-0.678-1.332-0.82c-0.514-0.156-1.038-0.143-1.405-0.084
			c-0.184,0.028-0.33,0.066-0.418,0.099c-0.052,0.015-0.07,0.03-0.071,0.041c0.001,0.01-0.046,0.015-0.038,0.015L297.936,392.562z"
			/>
	</g>
	<g>
		<path fill="#FFFFFF" d="M314.756,394.968c0,0-0.192-0.057-0.481-0.143c-0.291-0.082-0.687-0.189-1.08-0.278
			c-0.396-0.093-0.792-0.17-1.085-0.2c-0.298-0.042-0.484-0.003-0.496-0.009l-0.062-0.077c-0.002,0.015,0.112-0.2,0.356-0.429
			c0.238-0.241,0.578-0.524,0.923-0.792c0.348-0.272,0.7-0.527,0.97-0.717c0.273-0.188,0.456-0.313,0.456-0.313L314.756,394.968z"/>
	</g>
</g>
</svg>
