<?xml version="1.0" encoding="utf-8"?>
<!-- Generator: Adobe Illustrator 16.0.0, SVG Export Plug-In . SVG Version: 6.00 Build 0)  -->
<!DOCTYPE svg PUBLIC "-//W3C//DTD SVG 1.1//EN" "http://www.w3.org/Graphics/SVG/1.1/DTD/svg11.dtd">
<svg version="1.1" id="Layer_1" xmlns="http://www.w3.org/2000/svg" xmlns:xlink="http://www.w3.org/1999/xlink" x="0px" y="0px"
	 width="612px" height="792px" viewBox="0 0 612 792" enable-background="new 0 0 612 792" xml:space="preserve">
<g>
	<g>
		<path fill="#FFFFFF" d="M310.129,404.833c0,0,0.226,0.044,0.621,0.122c0.197,0.038,0.438,0.086,0.712,0.14
			c0.279,0.06,0.576,0.103,0.934,0.194c0.703,0.188,1.538,0.347,2.385,0.626c0.424,0.135,0.862,0.273,1.308,0.414
			c0.44,0.154,0.881,0.341,1.322,0.511c0.443,0.161,0.875,0.357,1.292,0.572c0.416,0.215,0.837,0.387,1.216,0.622
			c0.377,0.231,0.741,0.456,1.087,0.668c0.349,0.201,0.633,0.476,0.914,0.682c0.271,0.227,0.542,0.396,0.735,0.61
			c0.197,0.205,0.369,0.384,0.511,0.531c0.278,0.291,0.438,0.457,0.438,0.457l-0.049,0.049c0,0-0.188-0.131-0.519-0.36
			c-0.163-0.113-0.36-0.25-0.588-0.407c-0.219-0.165-0.52-0.277-0.815-0.438c-0.309-0.142-0.611-0.34-0.982-0.464
			c-0.361-0.133-0.742-0.272-1.137-0.417c-0.39-0.146-0.825-0.229-1.245-0.348c-0.421-0.121-0.854-0.222-1.299-0.287
			c-0.441-0.075-0.875-0.164-1.31-0.225c-0.437-0.046-0.866-0.092-1.281-0.137c-0.828-0.1-1.595-0.087-2.245-0.131
			c-0.32-0.019-0.654-0.002-0.93-0.006c-0.28,0.002-0.524,0.003-0.726,0.005c-0.403,0.002-0.633,0.003-0.633,0.003L310.129,404.833z
			"/>
	</g>
	<g>
		<path fill="#FFFFFF" d="M289.381,411.007c0,0,0.18-0.18,0.496-0.494c0.158-0.157,0.35-0.348,0.569-0.566
			c0.254-0.187,0.542-0.396,0.854-0.626c0.315-0.24,0.668-0.485,1.061-0.687c0.389-0.216,0.797-0.458,1.231-0.684
			c0.445-0.199,0.905-0.405,1.372-0.615c0.466-0.228,0.96-0.377,1.45-0.561c0.492-0.169,0.98-0.376,1.475-0.503
			c0.494-0.143,0.98-0.283,1.451-0.419c0.471-0.149,0.935-0.229,1.372-0.336c0.44-0.099,0.855-0.193,1.239-0.28
			c1.543-0.279,2.587-0.447,2.587-0.447l0.157,2.996c0,0-0.981-0.022-2.468-0.032c-0.371,0.015-0.772,0.029-1.197,0.046
			c-0.424,0.024-0.88,0.017-1.338,0.074c-0.463,0.045-0.942,0.092-1.428,0.139c-0.493,0.032-0.973,0.141-1.466,0.213
			c-0.489,0.086-0.991,0.142-1.459,0.272c-0.477,0.115-0.947,0.229-1.401,0.338c-0.445,0.136-0.867,0.291-1.275,0.427
			c-0.419,0.125-0.78,0.289-1.11,0.455c-0.339,0.162-0.651,0.311-0.927,0.441c-0.256,0.175-0.48,0.328-0.664,0.453
			C289.591,410.863,289.381,411.007,289.381,411.007z"/>
	</g>
	<path fill="none" stroke="#FFFFFF" stroke-width="3" stroke-miterlimit="10" d="M317.58,391.307c0,5.634-10.2,19.8-10.2,19.8
		s-10.2-14.167-10.2-19.8c0-5.633,4.567-10.2,10.2-10.2S317.58,385.674,317.58,391.307z"/>
	<circle fill="none" stroke="#FFFFFF" stroke-miterlimit="10" cx="307.38" cy="390.907" r="3.601"/>
</g>
</svg>
