<?xml version="1.0" encoding="utf-8"?>
<!-- Generator: Adobe Illustrator 16.0.0, SVG Export Plug-In . SVG Version: 6.00 Build 0)  -->
<!DOCTYPE svg PUBLIC "-//W3C//DTD SVG 1.1//EN" "http://www.w3.org/Graphics/SVG/1.1/DTD/svg11.dtd">
<svg version="1.1" id="Layer_1" xmlns="http://www.w3.org/2000/svg" xmlns:xlink="http://www.w3.org/1999/xlink" x="0px" y="0px"
	 width="612px" height="792px" viewBox="0 0 612 792" enable-background="new 0 0 612 792" xml:space="preserve">
<g>
	<path fill="none" stroke="#989898" stroke-width="3" stroke-miterlimit="10" d="M313.5,397.986c0,3.598-2.916,6.514-6.514,6.514
		h-1.973c-3.598,0-6.514-2.916-6.514-6.514v-13.972c0-3.598,2.916-6.514,6.514-6.514h1.973c3.598,0,6.514,2.917,6.514,6.514V397.986
		z"/>
	<path fill="none" stroke="#989898" stroke-width="3" stroke-miterlimit="10" d="M317.188,404c-1.807,3.279-5.296,5.5-9.305,5.5
		h-3.768c-4.008,0-7.497-2.221-9.304-5.499"/>
	<line fill="none" stroke="#989898" stroke-width="4" stroke-miterlimit="10" x1="306" y1="408" x2="306" y2="415"/>
	<line fill="none" stroke="#989898" stroke-miterlimit="10" x1="299" y1="396.5" x2="313" y2="396.5"/>
	<line fill="none" stroke="#989898" stroke-width="3" stroke-miterlimit="10" x1="302" y1="415.5" x2="310" y2="415.5"/>
</g>
</svg>
