<?xml version="1.0" encoding="utf-8"?>
<!-- Generator: Adobe Illustrator 16.0.0, SVG Export Plug-In . SVG Version: 6.00 Build 0)  -->
<!DOCTYPE svg PUBLIC "-//W3C//DTD SVG 1.1//EN" "http://www.w3.org/Graphics/SVG/1.1/DTD/svg11.dtd">
<svg version="1.1" id="Layer_1" xmlns="http://www.w3.org/2000/svg" xmlns:xlink="http://www.w3.org/1999/xlink" x="0px" y="0px"
	 width="612px" height="792px" viewBox="0 0 612 792" enable-background="new 0 0 612 792" xml:space="preserve">
<g>
	<path fill="#FFFFFF" d="M305.396,384.596c0,3.489-2.827,6.318-6.316,6.318c-3.485,0-6.314-2.829-6.314-6.318
		c0-3.485,2.829-6.312,6.314-6.312C302.569,378.283,305.396,381.11,305.396,384.596z"/>
	<path fill="#FFFFFF" d="M306,401.656c0-3.941-3.059-7.326-7.002-7.326c-3.939,0-6.998,3.007-6.998,6.949V414h14V401.656z"/>
	<circle fill="#FFFFFF" cx="314.695" cy="388.891" r="5.406"/>
	<path fill="#FFFFFF" d="M321,403.488c0-3.373-3.127-6.27-6.5-6.27c-3.374,0-6.5,2.572-6.5,5.945V414h13V403.488z"/>
</g>
</svg>
