<?xml version="1.0" encoding="utf-8"?>
<!-- Generator: Adobe Illustrator 16.0.0, SVG Export Plug-In . SVG Version: 6.00 Build 0)  -->
<!DOCTYPE svg PUBLIC "-//W3C//DTD SVG 1.1//EN" "http://www.w3.org/Graphics/SVG/1.1/DTD/svg11.dtd">
<svg version="1.1" id="Layer_1" xmlns="http://www.w3.org/2000/svg" xmlns:xlink="http://www.w3.org/1999/xlink" x="0px" y="0px"
	 width="612px" height="792px" viewBox="0 0 612 792" enable-background="new 0 0 612 792" xml:space="preserve">
<g>
	<polygon fill="none" stroke="#FFFFFF" stroke-width="3" stroke-miterlimit="10" points="335.5,416.5 277.5,416.5 277.5,380.5 
		285.779,380.5 289.568,375.5 298.288,375.5 301.614,380.5 335.5,380.5 	"/>
	<circle fill="none" stroke="#FFFFFF" stroke-width="3" stroke-miterlimit="10" cx="312.994" cy="398.671" r="16.857"/>
	<circle fill="none" stroke="#FFFFFF" stroke-miterlimit="10" cx="312.994" cy="398.671" r="13.008"/>
	<g>
		<path fill="#FFFFFF" d="M303.467,398.67c0,0-0.014-0.204-0.035-0.561c-0.019-0.178-0.021-0.395-0.004-0.65
			c0.009-0.255,0.017-0.549,0.072-0.857c0.034-0.315,0.101-0.652,0.199-1.006c0.072-0.362,0.23-0.716,0.36-1.103
			c0.176-0.362,0.335-0.759,0.57-1.12c0.208-0.382,0.481-0.727,0.746-1.088c0.296-0.329,0.585-0.678,0.924-0.966
			c0.317-0.315,0.683-0.562,1.025-0.824c0.367-0.218,0.714-0.465,1.08-0.624c0.356-0.184,0.706-0.332,1.041-0.442
			c0.33-0.132,0.646-0.208,0.926-0.278c0.28-0.078,0.529-0.127,0.735-0.15c0.416-0.061,0.653-0.095,0.653-0.095v3
			c0,0-0.168-0.014-0.461-0.038c-0.149-0.021-0.329-0.026-0.536-0.016c-0.208,0.002-0.446,0-0.701,0.042
			c-0.261,0.021-0.538,0.069-0.83,0.144c-0.303,0.05-0.594,0.18-0.918,0.276c-0.301,0.142-0.635,0.263-0.938,0.454
			c-0.322,0.164-0.61,0.389-0.918,0.601c-0.277,0.243-0.576,0.476-0.82,0.755c-0.271,0.259-0.479,0.562-0.708,0.844
			c-0.184,0.305-0.402,0.589-0.538,0.895c-0.16,0.295-0.291,0.586-0.388,0.866c-0.118,0.276-0.185,0.536-0.247,0.77
			c-0.071,0.231-0.117,0.443-0.139,0.622c-0.059,0.352-0.092,0.553-0.092,0.553L303.467,398.67z"/>
	</g>
</g>
</svg>
