<?xml version="1.0" encoding="utf-8"?>
<!-- Generator: Adobe Illustrator 16.0.0, SVG Export Plug-In . SVG Version: 6.00 Build 0)  -->
<!DOCTYPE svg PUBLIC "-//W3C//DTD SVG 1.1//EN" "http://www.w3.org/Graphics/SVG/1.1/DTD/svg11.dtd">
<svg version="1.1" id="Layer_1" xmlns="http://www.w3.org/2000/svg" xmlns:xlink="http://www.w3.org/1999/xlink" x="0px" y="0px"
	 width="612px" height="792px" viewBox="0 0 612 792" enable-background="new 0 0 612 792" xml:space="preserve">
<path fill="none" stroke="#989898" stroke-width="3" stroke-miterlimit="10" d="M319.398,393.426
	c-0.555-0.081-1.146-0.582-1.318-1.112l-0.824-2.008c-0.26-0.493-0.199-1.267,0.133-1.713l1.342-1.785
	c0.334-0.447,0.309-1.158-0.062-1.575l-1.469-1.472c-0.42-0.369-1.127-0.396-1.578-0.062l-1.783,1.34
	c-0.447,0.336-1.219,0.397-1.713,0.137l-2.006-0.824c-0.535-0.171-1.035-0.762-1.113-1.317l-0.316-2.208
	c-0.078-0.553-0.596-1.054-1.152-1.113c0,0-0.344-0.035-1.043-0.035c-0.695,0-1.043,0.035-1.043,0.035
	c-0.555,0.06-1.074,0.561-1.152,1.113l-0.316,2.208c-0.08,0.556-0.58,1.146-1.111,1.317l-2.006,0.824
	c-0.496,0.259-1.266,0.199-1.713-0.137l-1.787-1.34c-0.447-0.337-1.156-0.309-1.576,0.061l-1.469,1.471
	c-0.367,0.42-0.398,1.129-0.062,1.576l1.34,1.786c0.336,0.447,0.396,1.218,0.137,1.712l-0.826,2.01
	c-0.17,0.532-0.762,1.032-1.318,1.112l-2.207,0.312c-0.553,0.08-1.053,0.599-1.111,1.157c0,0-0.035,0.344-0.035,1.043
	s0.035,1.043,0.035,1.043c0.059,0.559,0.559,1.074,1.111,1.155l2.207,0.313c0.555,0.081,1.148,0.581,1.318,1.112l0.826,2.006
	c0.26,0.495,0.199,1.268-0.137,1.713l-1.34,1.787c-0.336,0.446-0.418,1.056-0.18,1.347c0.238,0.294,0.918,1.02,0.92,1.021
	c0,0,0.23,0.212,0.51,0.467c0.275,0.254,1.41,0.608,1.857,0.275l1.785-1.343c0.447-0.334,1.217-0.396,1.715-0.135l2.004,0.824
	c0.533,0.169,1.033,0.761,1.111,1.316l0.316,2.208c0.078,0.554,0.596,1.057,1.154,1.115c0,0,0.344,0.035,1.041,0.035
	c0.699,0,1.045-0.035,1.045-0.035c0.553-0.059,1.074-0.562,1.152-1.115l0.316-2.208c0.078-0.553,0.578-1.147,1.111-1.316
	l2.006-0.827c0.494-0.259,1.266-0.198,1.713,0.138l1.785,1.343c0.451,0.333,1.158,0.307,1.578-0.064l1.467-1.469
	c0.369-0.422,0.396-1.131,0.062-1.577l-1.34-1.787c-0.334-0.445-0.395-1.218-0.137-1.713l0.826-2.006
	c0.172-0.532,0.762-1.032,1.318-1.112l2.205-0.313c0.555-0.081,1.057-0.597,1.113-1.155c0,0,0.037-0.344,0.037-1.043
	s-0.037-1.043-0.037-1.043c-0.057-0.556-0.559-1.077-1.113-1.157L319.398,393.426z"/>
</svg>
